<?xml version="1.0" encoding="UTF-8" standalone="no" ?>
<!DOCTYPE svg PUBLIC "-//W3C//DTD SVG 1.1//EN" "http://www.w3.org/Graphics/SVG/1.1/DTD/svg11.dtd">
<svg xmlns="http://www.w3.org/2000/svg" xmlns:xlink="http://www.w3.org/1999/xlink" version="1.1" width="1080" height="1080" viewBox="0 0 1080 1080" xml:space="preserve">
<desc>Created with Fabric.js 5.2.4</desc>
<defs>
</defs>
<g transform="matrix(1 0 0 1 540 540)" id="d5bdea4f-81b4-4e5a-95e2-68dad04fd9a2"  >
<rect style="stroke: none; stroke-width: 1; stroke-dasharray: none; stroke-linecap: butt; stroke-dashoffset: 0; stroke-linejoin: miter; stroke-miterlimit: 4; fill: rgb(255,255,255); fill-rule: nonzero; opacity: 1; visibility: hidden;" vector-effect="non-scaling-stroke"  x="-540" y="-540" rx="0" ry="0" width="1080" height="1080" />
</g>
<g transform="matrix(1 0 0 1 540 540)" id="f4018aea-013c-426f-a7c2-8c950d6ee37b"  >
</g>
<g transform="matrix(0 -1.48 1.53 0 537.64 600.89)"  >
<path style="stroke: rgb(0,0,0); stroke-width: 0; stroke-dasharray: none; stroke-linecap: butt; stroke-dashoffset: 0; stroke-linejoin: miter; stroke-miterlimit: 4; fill: rgb(0,0,0); fill-rule: nonzero; opacity: 1;" vector-effect="non-scaling-stroke"  transform=" translate(-142.96, -142.96)" d="M 142.959 0 C 64.131 0 0 64.132 0 142.96 C 0 221.788 64.131 285.919 142.959 285.919 C 221.787 285.919 285.919 221.78799999999998 285.919 142.95999999999998 C 285.919 64.132 221.787 0 142.959 0 z M 142.959 260.919 L 142.959 142.96 L 142.959 25 C 208.002 25 260.919 77.917 260.919 142.95999999999998 C 260.919 208.003 208.002 260.919 142.959 260.919 z" stroke-linecap="round" />
</g>
<g transform="matrix(6.88 0 0 5.09 539.03 436.22)" id="cfa7cb23-fdab-472e-a34d-199ec0e14952"  >
<rect style="stroke: rgb(0,0,0); stroke-width: 0; stroke-dasharray: none; stroke-linecap: butt; stroke-dashoffset: 0; stroke-linejoin: miter; stroke-miterlimit: 4; fill: rgb(0,0,0); fill-rule: nonzero; opacity: 1;" vector-effect="non-scaling-stroke"  x="-33.085" y="-33.085" rx="0" ry="0" width="66.17" height="66.17" />
</g>
<g transform="matrix(4.78 0 0 4.78 314.16 437.72)" id="22034348-779e-4338-819b-495eaf7eb4a8"  >
<circle style="stroke: rgb(0,0,0); stroke-width: 0; stroke-dasharray: none; stroke-linecap: butt; stroke-dashoffset: 0; stroke-linejoin: miter; stroke-miterlimit: 4; fill: rgb(255,255,255); fill-rule: nonzero; opacity: 1;" vector-effect="non-scaling-stroke"  cx="0" cy="0" r="35" />
</g>
<g transform="matrix(4.76 0 0 4.76 767.42 437.72)" id="22034348-779e-4338-819b-495eaf7eb4a8"  >
<circle style="stroke: rgb(0,0,0); stroke-width: 0; stroke-dasharray: none; stroke-linecap: butt; stroke-dashoffset: 0; stroke-linejoin: miter; stroke-miterlimit: 4; fill: rgb(255,255,255); fill-rule: nonzero; opacity: 1;" vector-effect="non-scaling-stroke"  cx="0" cy="0" r="35" />
</g>
<g transform="matrix(-1.18 0 0 -1.19 766.94 437.99)"  >
<path style="stroke: rgb(0,0,0); stroke-width: 0; stroke-dasharray: none; stroke-linecap: butt; stroke-dashoffset: 0; stroke-linejoin: miter; stroke-miterlimit: 4; fill: rgb(0,0,0); fill-rule: nonzero; opacity: 1;" vector-effect="non-scaling-stroke"  transform=" translate(-142.96, -142.96)" d="M 142.959 0 C 64.131 0 0 64.132 0 142.96 C 0 221.788 64.131 285.919 142.959 285.919 C 221.787 285.919 285.919 221.78799999999998 285.919 142.95999999999998 C 285.919 64.132 221.787 0 142.959 0 z M 142.959 260.919 L 142.959 142.96 L 142.959 25 C 208.002 25 260.919 77.917 260.919 142.95999999999998 C 260.919 208.003 208.002 260.919 142.959 260.919 z" stroke-linecap="round" />
</g>
<g transform="matrix(1.18 0 0 1.19 313.06 438.58)"  >
<path style="stroke: rgb(0,0,0); stroke-width: 0; stroke-dasharray: none; stroke-linecap: butt; stroke-dashoffset: 0; stroke-linejoin: miter; stroke-miterlimit: 4; fill: rgb(0,0,0); fill-rule: nonzero; opacity: 1;" vector-effect="non-scaling-stroke"  transform=" translate(-142.96, -142.96)" d="M 142.959 0 C 64.131 0 0 64.132 0 142.96 C 0 221.788 64.131 285.919 142.959 285.919 C 221.787 285.919 285.919 221.78799999999998 285.919 142.95999999999998 C 285.919 64.132 221.787 0 142.959 0 z M 142.959 260.919 L 142.959 142.96 L 142.959 25 C 208.002 25 260.919 77.917 260.919 142.95999999999998 C 260.919 208.003 208.002 260.919 142.959 260.919 z" stroke-linecap="round" />
</g>
</svg>